<svg width="28" height="30" viewBox="0 0 28 30" fill="none" xmlns="http://www.w3.org/2000/svg">
<g clip-path="url(#clip0_95_3575)">
<path d="M15.2193 17.6314L15.1714 21.2579C15.1714 21.3702 15.1491 21.4814 15.1057 21.5849C15.0623 21.6885 14.9987 21.7824 14.9187 21.8611C14.8386 21.9399 14.7437 22.0019 14.6394 22.0436C14.5351 22.0853 14.4236 22.1058 14.3113 22.1039H12.9577C12.8443 22.1058 12.7316 22.0849 12.6263 22.0423C12.5211 21.9998 12.4255 21.9365 12.3453 21.8562C12.265 21.776 12.2018 21.6804 12.1592 21.5752C12.1167 21.47 12.0957 21.3573 12.0976 21.2438V17.623C12.0933 17.3999 12.0028 17.1873 11.8451 17.0295C11.6873 16.8718 11.4747 16.7813 11.2516 16.777H10.3803C10.1559 16.777 9.94072 16.8661 9.78206 17.0247C9.62341 17.1834 9.53428 17.3986 9.53428 17.623V21.2466C9.53615 21.3589 9.51565 21.4704 9.47397 21.5747C9.4323 21.679 9.37028 21.7739 9.29153 21.854C9.21279 21.934 9.1189 21.9976 9.01533 22.041C8.91175 22.0844 8.80058 22.1067 8.68829 22.1067H7.5603C7.44683 22.1086 7.33413 22.0877 7.22891 22.0451C7.1237 22.0026 7.02812 21.9393 6.94787 21.859C6.86762 21.7788 6.80434 21.6832 6.76179 21.578C6.71925 21.4728 6.6983 21.3601 6.70021 21.2466V14.9045C6.70019 14.7922 6.72253 14.681 6.76593 14.5775C6.80932 14.4739 6.8729 14.38 6.95296 14.3013C7.03302 14.2225 7.12795 14.1605 7.23222 14.1188C7.33649 14.0771 7.44802 14.0566 7.5603 14.0585H11.2686C11.494 14.0541 11.7087 13.9616 11.8668 13.8009C12.0249 13.6401 12.1139 13.4239 12.1146 13.1984V6.02441H4.07764V24.6983H23.0701V6.02441H15.0501V13.1843C15.0509 13.4122 15.1417 13.6305 15.3029 13.7917C15.464 13.9528 15.6824 14.0437 15.9102 14.0444H19.61C19.7231 14.0444 19.8349 14.067 19.9391 14.1109C20.0432 14.1548 20.1375 14.2192 20.2164 14.3001C20.2952 14.3811 20.3571 14.477 20.3982 14.5823C20.4394 14.6875 20.459 14.8 20.456 14.913V15.9423C20.4561 16.0548 20.4336 16.1662 20.3901 16.27C20.3465 16.3737 20.2826 16.4677 20.2023 16.5465C20.1219 16.6253 20.0267 16.6873 19.9221 16.7288C19.8175 16.7703 19.7056 16.7905 19.5931 16.7882H16.0794C15.9674 16.7864 15.8561 16.8068 15.752 16.8483C15.6479 16.8898 15.5531 16.9516 15.4731 17.03C15.3931 17.1084 15.3294 17.202 15.2859 17.3052C15.2423 17.4085 15.2197 17.5194 15.2193 17.6314ZM6.65791 8.62443H9.4948V11.4557H6.66919L6.65791 8.62443ZM20.4758 22.0954H17.7489V19.3601H20.4758V22.0954ZM20.5886 11.4557H17.7517V8.61879H20.5886V11.4557Z" fill="#434BED"/>
<path d="M12.4219 28.6014H23.3605C24.3149 28.6014 25.2301 28.2223 25.9049 27.5475C26.5797 26.8726 26.9588 25.9574 26.9588 25.0031V5.52272C26.9588 4.5684 26.5797 3.65316 25.9049 2.97835C25.2301 2.30354 24.3149 1.92444 23.3605 1.92444H22.6443" stroke="#434BED" stroke-width="0.563994" stroke-linecap="square" stroke-linejoin="bevel"/>
<path d="M3.88002 28.6014C2.9257 28.6014 2.01046 28.2223 1.33565 27.5475C0.660843 26.8726 0.281738 25.9574 0.281738 25.0031V5.52272C0.281738 4.5684 0.660843 3.65316 1.33565 2.97835C2.01046 2.30354 2.9257 1.92444 3.88002 1.92444H17.5287" stroke="#434BED" stroke-width="0.563994" stroke-linecap="square" stroke-linejoin="bevel"/>
<path d="M21.4373 0.852661H18.8091V3.48087H21.4373V0.852661Z" fill="#434BED"/>
<path d="M7.76103 27.2871H5.13281V29.9153H7.76103V27.2871Z" fill="#434BED"/>
<path d="M11.1473 27.2871H8.51904V29.9153H11.1473V27.2871Z" fill="#434BED"/>
</g>
<defs>
<clipPath id="clip0_95_3575">
<rect width="27.2409" height="29.0626" fill="white" transform="translate(0 0.852661)"/>
</clipPath>
</defs>
</svg>
