<svg width="32" height="34" viewBox="0 0 32 34" fill="none" xmlns="http://www.w3.org/2000/svg">
<rect y="0.852661" width="31.2409" height="33.0626" rx="2" fill="#434BED"/>
<g clip-path="url(#clip0_207_8067)">
<path d="M17.2193 19.6314L17.1714 23.2579C17.1714 23.3702 17.1491 23.4814 17.1057 23.5849C17.0623 23.6885 16.9987 23.7824 16.9187 23.8611C16.8386 23.9399 16.7437 24.0019 16.6394 24.0436C16.5351 24.0853 16.4236 24.1058 16.3113 24.1039H14.9577C14.8443 24.1058 14.7316 24.0849 14.6263 24.0423C14.5211 23.9998 14.4255 23.9365 14.3453 23.8562C14.265 23.776 14.2018 23.6804 14.1592 23.5752C14.1167 23.47 14.0957 23.3573 14.0976 23.2438V19.623C14.0933 19.3999 14.0028 19.1873 13.8451 19.0295C13.6873 18.8718 13.4747 18.7813 13.2516 18.777H12.3803C12.1559 18.777 11.9407 18.8661 11.7821 19.0247C11.6234 19.1834 11.5343 19.3986 11.5343 19.623V23.2466C11.5362 23.3589 11.5157 23.4704 11.474 23.5747C11.4323 23.679 11.3703 23.7739 11.2915 23.854C11.2128 23.934 11.1189 23.9976 11.0153 24.041C10.9118 24.0844 10.8006 24.1067 10.6883 24.1067H9.5603C9.44683 24.1086 9.33413 24.0877 9.22891 24.0451C9.1237 24.0026 9.02812 23.9393 8.94787 23.859C8.86762 23.7788 8.80434 23.6832 8.76179 23.578C8.71925 23.4728 8.6983 23.3601 8.70021 23.2466V16.9045C8.70019 16.7922 8.72253 16.681 8.76593 16.5775C8.80932 16.4739 8.8729 16.38 8.95296 16.3013C9.03302 16.2225 9.12795 16.1605 9.23222 16.1188C9.33649 16.0771 9.44802 16.0566 9.5603 16.0585H13.2686C13.494 16.0541 13.7087 15.9616 13.8668 15.8009C14.0249 15.6401 14.1139 15.4239 14.1146 15.1984V8.02441H6.07764V26.6983H25.0701V8.02441H17.0501V15.1843C17.0509 15.4122 17.1417 15.6305 17.3029 15.7917C17.464 15.9528 17.6824 16.0437 17.9102 16.0444H21.61C21.7231 16.0444 21.8349 16.067 21.9391 16.1109C22.0432 16.1548 22.1375 16.2192 22.2164 16.3001C22.2952 16.3811 22.3571 16.477 22.3982 16.5823C22.4394 16.6875 22.459 16.8 22.456 16.913V17.9423C22.4561 18.0548 22.4336 18.1662 22.3901 18.27C22.3465 18.3737 22.2826 18.4677 22.2023 18.5465C22.1219 18.6253 22.0267 18.6873 21.9221 18.7288C21.8175 18.7703 21.7056 18.7905 21.5931 18.7882H18.0794C17.9674 18.7864 17.8561 18.8068 17.752 18.8483C17.6479 18.8898 17.5531 18.9516 17.4731 19.03C17.3931 19.1084 17.3294 19.202 17.2859 19.3052C17.2423 19.4085 17.2197 19.5194 17.2193 19.6314ZM8.65791 10.6244H11.4948V13.4557H8.66919L8.65791 10.6244ZM22.4758 24.0954H19.7489V21.3601H22.4758V24.0954ZM22.5886 13.4557H19.7517V10.6188H22.5886V13.4557Z" fill="white"/>
<path d="M14.4219 30.6014H25.3605C26.3149 30.6014 27.2301 30.2223 27.9049 29.5475C28.5797 28.8726 28.9588 27.9574 28.9588 27.0031V7.52272C28.9588 6.5684 28.5797 5.65316 27.9049 4.97835C27.2301 4.30354 26.3149 3.92444 25.3605 3.92444H24.6443" stroke="white" stroke-width="0.563994" stroke-linecap="square" stroke-linejoin="bevel"/>
<path d="M5.88002 30.6014C4.9257 30.6014 4.01046 30.2223 3.33565 29.5475C2.66084 28.8726 2.28174 27.9574 2.28174 27.0031V7.52272C2.28174 6.5684 2.66084 5.65316 3.33565 4.97835C4.01046 4.30354 4.9257 3.92444 5.88002 3.92444H19.5287" stroke="white" stroke-width="0.563994" stroke-linecap="square" stroke-linejoin="bevel"/>
<path d="M23.4373 2.85266H20.8091V5.48087H23.4373V2.85266Z" fill="white"/>
<path d="M9.76103 29.2871H7.13281V31.9153H9.76103V29.2871Z" fill="white"/>
<path d="M13.1473 29.2871H10.519V31.9153H13.1473V29.2871Z" fill="white"/>
</g>
<defs>
<clipPath id="clip0_207_8067">
<rect width="27.2409" height="29.0626" fill="white" transform="translate(2 2.85266)"/>
</clipPath>
</defs>
</svg>
